<?xml version="1.0" encoding="UTF-8" standalone="no"?>
<!-- Created with Inkscape (http://www.inkscape.org/) -->
<svg
   xmlns:dc="http://purl.org/dc/elements/1.1/"
   xmlns:cc="http://web.resource.org/cc/"
   xmlns:rdf="http://www.w3.org/1999/02/22-rdf-syntax-ns#"
   xmlns:svg="http://www.w3.org/2000/svg"
   xmlns="http://www.w3.org/2000/svg"
   xmlns:sodipodi="http://sodipodi.sourceforge.net/DTD/sodipodi-0.dtd"
   xmlns:inkscape="http://www.inkscape.org/namespaces/inkscape"
   width="744.09448819"
   height="1052.3622047"
   id="svg2280"
   sodipodi:version="0.32"
   inkscape:version="0.45.1"
   sodipodi:docbase="/Users/clements/clements/john/images/plt-pictures/workshops"
   sodipodi:docname="logo.svg"
   inkscape:output_extension="org.inkscape.output.svg.inkscape">
  <defs
     id="defs2282" />
  <sodipodi:namedview
     id="base"
     pagecolor="#ffffff"
     bordercolor="#666666"
     borderopacity="1.0"
     gridtolerance="10000"
     guidetolerance="10"
     objecttolerance="10"
     inkscape:pageopacity="0.0"
     inkscape:pageshadow="2"
     inkscape:zoom="0.35"
     inkscape:cx="375"
     inkscape:cy="520"
     inkscape:document-units="px"
     inkscape:current-layer="layer1"
     inkscape:window-width="697"
     inkscape:window-height="581"
     inkscape:window-x="20"
     inkscape:window-y="42" />
  <metadata
     id="metadata2285">
    <rdf:RDF>
      <cc:Work
         rdf:about="">
        <dc:format>image/svg+xml</dc:format>
        <dc:type
           rdf:resource="http://purl.org/dc/dcmitype/StillImage" />
      </cc:Work>
    </rdf:RDF>
  </metadata>
  <g
     inkscape:label="Layer 1"
     inkscape:groupmode="layer"
     id="layer1">
    <path
       sodipodi:type="arc"
       style="fill:#ffffff;fill-opacity:1;stroke:#000000;stroke-width:4.5454545;stroke-miterlimit:10.43299961;stroke-dasharray:none;stroke-opacity:1"
       id="path7129"
       sodipodi:cx="378.57144"
       sodipodi:cy="433.79074"
       sodipodi:rx="312.85715"
       sodipodi:ry="312.85715"
       d="M 691.42859 433.79074 A 312.85715 312.85715 0 1 1  65.714294,433.79074 A 312.85715 312.85715 0 1 1  691.42859 433.79074 z"
       transform="matrix(-1.067,0,0,1.067,789.65,103.7932)" />
    <path
       sodipodi:type="arc"
       style="fill:#ffffff;fill-opacity:1;stroke:none;stroke-width:6.25;stroke-miterlimit:10.43299961;stroke-dasharray:none;stroke-opacity:1"
       id="path4218"
       sodipodi:cx="378.57144"
       sodipodi:cy="433.79074"
       sodipodi:rx="312.85715"
       sodipodi:ry="312.85715"
       d="M 691.42859 433.79074 A 312.85715 312.85715 0 1 1  65.714294,433.79074 A 312.85715 312.85715 0 1 1  691.42859 433.79074 z"
       transform="translate(7.1428324,132.85717)" />
    <path
       id="path2227"
       style="font-style:normal;font-variant:normal;font-weight:normal;font-stretch:normal;letter-spacing:normal;word-spacing:normal;text-anchor:start;fill:#ff0000;fill-opacity:1;fill-rule:nonzero;stroke:#000000;stroke-width:5;stroke-linecap:square;stroke-linejoin:miter;stroke-miterlimit:10.43299961;stroke-dasharray:none;stroke-dashoffset:0;stroke-opacity:1"
       d="M 224.28672,296.93537 L 232.78667,312.93527 C 273.78641,301.93534 301.28623,294.93538 316.28613,313.93526 C 351.34841,358.34748 358.78586,393.93475 367.78581,438.93446 C 372.39828,462.00931 370.39829,476.30922 365.24832,496.93409 C 352.6234,547.47127 330.46104,584.54603 304.78621,627.93325 C 269.49893,687.55787 235.96165,758.51992 196.7869,816.93204 L 206.28684,824.93199 L 205.61184,824.96949 C 121.42363,766.01987 71.287705,669.70798 71.287705,566.93364 C 71.287705,456.35935 129.27108,353.87251 224.04923,296.92287" />
    <path
       id="path2229"
       style="font-style:normal;font-variant:normal;font-weight:normal;font-stretch:normal;letter-spacing:normal;word-spacing:normal;text-anchor:start;fill:#ff0000;fill-opacity:1;fill-rule:nonzero;stroke:#000000;stroke-width:5;stroke-linecap:square;stroke-linejoin:miter;stroke-miterlimit:10.43299961;stroke-dasharray:none;stroke-dashoffset:0;stroke-opacity:1"
       d="M 206.28684,824.93199 L 259.7865,816.93204 C 279.78637,769.93234 302.19873,718.14517 322.2861,672.93296 C 338.28599,636.93319 349.78592,600.93342 367.78581,564.93365 C 372.29828,555.90871 389.28567,510.934 400.2856,526.9339 C 410.17303,541.32131 422.28546,566.93364 429.28541,584.93353 C 448.56029,634.50821 466.86017,682.5454 485.28505,729.9326 C 499.28496,765.93237 507.78491,792.9322 520.78483,825.93198 L 536.28473,832.93194 L 600.28432,797.93216 L 605.09679,793.51969 C 546.37216,850.23308 467.92266,881.93163 386.28569,881.93163 C 321.6486,881.93163 258.5615,862.03925 205.61184,824.96949" />
    <path
       id="path2231"
       style="font-style:normal;font-variant:normal;font-weight:normal;font-stretch:normal;letter-spacing:normal;word-spacing:normal;text-anchor:start;fill:#0000ff;fill-opacity:1;fill-rule:nonzero;stroke:#000000;stroke-width:5;stroke-linecap:square;stroke-linejoin:miter;stroke-miterlimit:10.43299961;stroke-dasharray:none;stroke-dashoffset:0;stroke-opacity:1"
       d="M 224.28672,296.93537 L 239.07413,291.8479 L 254.01153,286.76044 L 261.53649,284.31045 L 269.09894,281.97297 L 276.69889,279.78548 L 284.32384,277.78549 L 291.97379,275.998 L 299.66124,274.48551 L 307.37369,273.26052 L 311.23617,272.77302 L 315.11114,272.38553 L 318.98612,272.07303 L 322.87359,271.87303 L 326.76107,271.76053 L 330.64854,271.76053 L 334.54852,271.87303 L 338.46099,272.11053 L 342.37347,272.46053 L 346.28594,272.93552 C 399.8856,280.33548 421.51046,356.02249 435.28537,403.93469 C 450.03528,455.25936 471.78514,496.93409 489.28503,546.93377 C 517.84735,628.53325 565.78454,708.93273 601.78431,789.93221 L 600.28432,797.93216 L 605.09679,793.51969 C 666.57139,734.17007 701.28367,652.3831 701.28367,566.93364 C 701.28367,392.97226 560.24707,251.93566 386.28569,251.93566 C 329.12355,251.93566 273.03641,267.49806 224.04923,296.92287" />
    <path
       sodipodi:type="arc"
       style="fill:none;fill-opacity:1;stroke:none;stroke-width:4.5454545;stroke-miterlimit:10.43299961;stroke-dasharray:none;stroke-opacity:1"
       id="path2219"
       sodipodi:cx="378.57144"
       sodipodi:cy="433.79074"
       sodipodi:rx="312.85715"
       sodipodi:ry="312.85715"
       d="M 691.42859 433.79074 A 312.85715 312.85715 0 1 1  65.714294,433.79074 A 312.85715 312.85715 0 1 1  691.42859 433.79074 z"
       transform="matrix(1.7300976e-2,1.0882025,-1.0882025,1.7300976e-2,851.21678,147.18053)" />
    <path
       sodipodi:type="arc"
       style="fill:none;fill-opacity:1;stroke:none;stroke-width:4.5454545;stroke-miterlimit:10.43299961;stroke-dasharray:none;stroke-opacity:1"
       id="path3203"
       sodipodi:cx="378.57144"
       sodipodi:cy="433.79074"
       sodipodi:rx="312.85715"
       sodipodi:ry="312.85715"
       d="M 691.42859 433.79074 A 312.85715 312.85715 0 1 1  65.714294,433.79074 A 312.85715 312.85715 0 1 1  691.42859 433.79074 z"
       transform="matrix(-1.886784e-2,-1.5363641,-1.5363641,1.886784e-2,1059.3176,1140.0868)" />
  </g>
</svg>
